<svg width="21" height="17" viewBox="0 0 21 17" fill="none" xmlns="http://www.w3.org/2000/svg">
<path d="M7.99219 0L7.40625 0.0703125C7.40625 0.0703125 4.77832 0.357422 2.85938 1.89844H2.83594L2.8125 1.92188C2.38184 2.31738 2.19434 2.80371 1.89844 3.51562C1.60254 4.22754 1.28613 5.13574 1.00781 6.14062C0.451172 8.15332 0 10.5908 0 12.8203V13.0078L0.09375 13.1953C0.788086 14.4141 2.02148 15.1904 3.16406 15.7266C4.30664 16.2627 5.29395 16.5469 5.97656 16.5703L6.42188 16.5938L6.65625 16.1953L7.47656 14.7422C8.34668 14.9385 9.34863 15.0703 10.5 15.0703C11.6514 15.0703 12.6533 14.9385 13.5234 14.7422L14.3438 16.1953L14.5781 16.5938L15.0234 16.5703C15.7061 16.5469 16.6934 16.2627 17.8359 15.7266C18.9785 15.1904 20.2119 14.4141 20.9062 13.1953L21 13.0078V12.8203C21 10.5908 20.5488 8.15332 19.9922 6.14062C19.7139 5.13574 19.3975 4.22754 19.1016 3.51562C18.8057 2.80371 18.6182 2.31738 18.1875 1.92188L18.1641 1.89844H18.1406C16.2217 0.357422 13.5938 0.0703125 13.5938 0.0703125L13.0078 0L12.7969 0.539062C12.7969 0.539062 12.5801 1.08691 12.4453 1.71094C11.5957 1.59668 10.9014 1.57031 10.5 1.57031C10.0986 1.57031 9.4043 1.59668 8.55469 1.71094C8.41992 1.08691 8.20312 0.539062 8.20312 0.539062L7.99219 0ZM6.96094 1.71094C6.99316 1.81641 7.02539 1.90723 7.05469 1.99219C6.08496 2.23242 5.05078 2.59863 4.10156 3.1875L4.89844 4.45312C6.84375 3.24609 9.63867 3.07031 10.5 3.07031C11.3613 3.07031 14.1562 3.24609 16.1016 4.45312L16.8984 3.1875C15.9492 2.59863 14.915 2.23242 13.9453 1.99219C13.9746 1.90723 14.0068 1.81641 14.0391 1.71094C14.7393 1.85156 16.0752 2.17383 17.1797 3.04688C17.1738 3.0498 17.4609 3.4834 17.7188 4.10156C17.9824 4.7373 18.2754 5.58398 18.5391 6.53906C19.0459 8.37012 19.4443 10.5996 19.4766 12.5625C19.0049 13.2832 18.1289 13.9336 17.2031 14.3672C16.3945 14.7451 15.7559 14.8828 15.375 14.9531L15 14.3203C15.2227 14.2383 15.4424 14.1475 15.6328 14.0625C16.7871 13.5557 17.4141 13.0078 17.4141 13.0078L16.4297 11.8828C16.4297 11.8828 16.0078 12.2695 15.0234 12.7031C14.0391 13.1367 12.5361 13.5703 10.5 13.5703C8.46387 13.5703 6.96094 13.1367 5.97656 12.7031C4.99219 12.2695 4.57031 11.8828 4.57031 11.8828L3.58594 13.0078C3.58594 13.0078 4.21289 13.5557 5.36719 14.0625C5.55762 14.1475 5.77734 14.2383 6 14.3203L5.625 14.9531C5.24414 14.8828 4.60547 14.7451 3.79688 14.3672C2.87109 13.9336 1.99512 13.2832 1.52344 12.5625C1.55566 10.5996 1.9541 8.37012 2.46094 6.53906C2.72461 5.58398 3.01758 4.7373 3.28125 4.10156C3.53906 3.4834 3.82617 3.0498 3.82031 3.04688C4.9248 2.17383 6.26074 1.85156 6.96094 1.71094ZM7.875 6.82031C7.29492 6.82031 6.78223 7.15137 6.46875 7.57031C6.15527 7.98926 6 8.50488 6 9.07031C6 9.63574 6.15527 10.1514 6.46875 10.5703C6.78223 10.9893 7.29492 11.3203 7.875 11.3203C8.45508 11.3203 8.96777 10.9893 9.28125 10.5703C9.59473 10.1514 9.75 9.63574 9.75 9.07031C9.75 8.50488 9.59473 7.98926 9.28125 7.57031C8.96777 7.15137 8.45508 6.82031 7.875 6.82031ZM13.125 6.82031C12.5449 6.82031 12.0322 7.15137 11.7188 7.57031C11.4053 7.98926 11.25 8.50488 11.25 9.07031C11.25 9.63574 11.4053 10.1514 11.7188 10.5703C12.0322 10.9893 12.5449 11.3203 13.125 11.3203C13.7051 11.3203 14.2178 10.9893 14.5312 10.5703C14.8447 10.1514 15 9.63574 15 9.07031C15 8.50488 14.8447 7.98926 14.5312 7.57031C14.2178 7.15137 13.7051 6.82031 13.125 6.82031ZM7.875 8.32031C7.91602 8.32031 7.96875 8.33496 8.0625 8.46094C8.15625 8.58691 8.25 8.80664 8.25 9.07031C8.25 9.33398 8.15625 9.55371 8.0625 9.67969C7.96875 9.80566 7.91602 9.82031 7.875 9.82031C7.83398 9.82031 7.78125 9.80566 7.6875 9.67969C7.59375 9.55371 7.5 9.33398 7.5 9.07031C7.5 8.80664 7.59375 8.58691 7.6875 8.46094C7.78125 8.33496 7.83398 8.32031 7.875 8.32031ZM13.125 8.32031C13.166 8.32031 13.2188 8.33496 13.3125 8.46094C13.4062 8.58691 13.5 8.80664 13.5 9.07031C13.5 9.33398 13.4062 9.55371 13.3125 9.67969C13.2188 9.80566 13.166 9.82031 13.125 9.82031C13.084 9.82031 13.0312 9.80566 12.9375 9.67969C12.8438 9.55371 12.75 9.33398 12.75 9.07031C12.75 8.80664 12.8438 8.58691 12.9375 8.46094C13.0312 8.33496 13.084 8.32031 13.125 8.32031Z" fill="black"/>
</svg>
